<?xml version="1.0" encoding="UTF-8"?>
<svg xmlns="http://www.w3.org/2000/svg" xmlns:xlink="http://www.w3.org/1999/xlink" viewBox="0 0 100 100" width="100px" height="100px">
<g id="surface174988992">
<path style=" stroke:none;fill-rule:nonzero;fill:rgb(12.54902%,12.54902%,12.54902%);fill-opacity:1;" d="M 49.859375 4.003906 C 49.640625 4.003906 49.417969 4.042969 49.207031 4.113281 L 7.34375 18.683594 C 6.457031 18.992188 5.898438 19.878906 6.015625 20.8125 L 12.632812 75.058594 C 12.710938 75.699219 13.089844 76.265625 13.660156 76.574219 L 48.957031 95.757812 C 49.253906 95.917969 49.582031 96 49.910156 96 C 50.238281 96 50.574219 95.917969 50.871094 95.753906 L 86.347656 76.308594 C 86.910156 76 87.296875 75.433594 87.371094 74.796875 L 93.984375 20.554688 C 94.101562 19.617188 93.539062 18.722656 92.640625 18.417969 L 50.507812 4.105469 C 50.296875 4.035156 50.078125 4.003906 49.859375 4.003906 Z M 50 14 L 76 70 L 67.125 70 L 61.5625 58.015625 L 38.4375 58.015625 L 32.875 70 L 24 70 Z M 50 33 L 42.160156 50 L 57.839844 50 Z M 50 33 "/>
</g>
</svg>
