<?xml version="1.0" encoding="UTF-8" standalone="no"?><svg xmlns="http://www.w3.org/2000/svg" xmlns:xlink="http://www.w3.org/1999/xlink" fill="#000000" height="32" preserveAspectRatio="xMidYMid meet" version="1" viewBox="-0.0 0.0 32.0 32.0" width="32" zoomAndPan="magnify">
 <g id="change1_1"><path d="m31.396 14.575l-13.971-13.971a2.06 2.06 0 0 0 -2.914 0l-2.9 2.9 3.68 3.68c0.856-0.3 1.836-0.095 2.518 0.587a2.45 2.45 0 0 1 0.581 2.533l3.547 3.547c0.858-0.296 1.848-0.105 2.533 0.582a2.45 2.45 0 1 1 -3.469 3.468c-0.72-0.72-0.898-1.78-0.534-2.667l-3.308-3.308v8.705a2.5 2.5 0 0 1 0.65 0.464 2.45 2.45 0 1 1 -3.468 3.468 2.45 2.45 0 0 1 0 -3.468c0.237-0.236 0.5-0.415 0.803-0.535v-8.786c-0.292-0.12-0.566-0.297-0.803-0.535a2.45 2.45 0 0 1 -0.528 -2.681l-3.63-3.628-9.58 9.57a2.06 2.06 0 0 0 0 2.915l13.972 13.97a2.06 2.06 0 0 0 2.914 0l13.907-13.885a2.06 2.06 0 0 0 0 -2.915" fill="#9fdee0"/></g>
</svg>