<?xml version="1.0" encoding="UTF-8"?>
<svg xmlns="http://www.w3.org/2000/svg" xmlns:xlink="http://www.w3.org/1999/xlink" viewBox="0 0 100 100" width="100px" height="100px">
<g id="surface174985885">
<path style=" stroke:none;fill-rule:nonzero;fill:rgb(12.54902%,12.54902%,12.54902%);fill-opacity:1;" d="M 90.546875 4.648438 C 90.167969 4.234375 89.632812 4 89.070312 4 L 10.929688 4 C 10.367188 4 9.832031 4.234375 9.453125 4.648438 C 9.070312 5.0625 8.886719 5.621094 8.9375 6.179688 L 15.976562 85.03125 C 16.050781 85.855469 16.625 86.550781 17.421875 86.777344 L 49.441406 95.925781 C 49.617188 95.972656 49.804688 96 49.988281 96 C 50.171875 96 50.359375 95.972656 50.535156 95.925781 L 82.585938 86.777344 C 83.378906 86.550781 83.953125 85.855469 84.027344 85.03125 L 91.0625 6.179688 C 91.113281 5.621094 90.925781 5.0625 90.546875 4.648438 Z M 24 58.007812 L 38 61.890625 L 38 22 L 46 22 L 46 74 L 24 67.898438 Z M 76.109375 44 L 74 68.5 L 54 74 L 54 64.796875 L 67.5 61.089844 L 68 53.589844 L 54 56 L 54 22 L 78 22 L 77.308594 30 L 62 30 L 62 46 Z M 76.109375 44 "/>
</g>
</svg>
